<?xml version="1.0" standalone="no"?>
<!DOCTYPE svg PUBLIC "-//W3C//DTD SVG 20010904//EN"
 "http://www.w3.org/TR/2001/REC-SVG-20010904/DTD/svg10.dtd">
<svg version="1.0" xmlns="http://www.w3.org/2000/svg"
 width="256pt" height="256pt" viewBox="0 0 768.000000 768.000000"
 preserveAspectRatio="xMidYMid meet">

<g transform="translate(0.000000,768.000000) scale(0.100000,-0.100000)"
fill="#cb2026" stroke="none">
<path d="M2968 5078 c-147 -255 -270 -471 -273 -480 -5 -12 95 -195 325 -595
183 -318 335 -581 339 -585 7 -7 556 944 553 958 -3 15 -667 1163 -672 1164
-3 0 -126 -208 -272 -462z"/>
<path d="M1520 3813 c-382 -663 -710 -1232 -728 -1264 l-34 -59 1039 0 1038 0
205 357 c113 196 206 362 208 368 2 9 -1007 1775 -1027 1797 -3 4 -319 -536
-701 -1199z"/>
<path d="M5190 4524 c-157 -272 -286 -502 -288 -509 -2 -8 192 -354 430 -770
l433 -754 588 -1 c558 0 587 1 578 18 -29 54 -1444 2498 -1449 2504 -4 3 -135
-216 -292 -488z"/>
<path d="M3572 3396 c-397 -690 -722 -1257 -722 -1260 0 -4 653 -6 1451 -6
1272 0 1450 2 1446 15 -14 34 -1440 2505 -1446 2505 -4 0 -332 -565 -729
-1254z"/>
</g>
</svg>
